#define 1_width 16
#define 1_height 16
static char 1_bits[] = {
  0x00, 0x00, 0x80, 0x03, 0xC0, 0x03, 0xE0, 0x03, 0xF0, 0x03, 0xF0, 0x03, 
  0xC0, 0x03, 0xC0, 0x03, 0xC0, 0x03, 0xC0, 0x03, 0xC0, 0x03, 0xC0, 0x03, 
  0xF0, 0x0F, 0xF0, 0x0F, 0xF0, 0x0F, 0x00, 0x00, };
