#define 8_width 16
#define 8_height 16
static char 8_bits[] = {
  0x00, 0x00, 0x00, 0x00, 0xE0, 0x07, 0xF0, 0x0F, 0xF8, 0x1F, 0x38, 0x1C, 
  0x38, 0x1C, 0xF0, 0x0F, 0xF0, 0x0F, 0x38, 0x1C, 0x38, 0x1C, 0xF8, 0x1F, 
  0xF0, 0x0F, 0xE0, 0x07, 0x00, 0x00, 0x00, 0x00, };
