#define flag_width 16
#define flag_height 16
static char flag_bits[] = {
  0x00, 0x00, 0x00, 0x00, 0xC0, 0x01, 0x70, 0x01, 0xF8, 0x01, 0xF0, 0x01, 
  0xC0, 0x01, 0x80, 0x01, 0x80, 0x01, 0x80, 0x01, 0x80, 0x01, 0xE0, 0x07, 
  0xF8, 0x1F, 0xF8, 0x1F, 0x00, 0x00, 0x00, 0x00, };
