#define mine_width 16
#define mine_height 16
static char mine_bits[] = {
  0x00, 0x00, 0x80, 0x01, 0x84, 0x21, 0xE8, 0x17, 0xF0, 0x0F, 0xB8, 0x1F, 
  0x18, 0x1F, 0xFE, 0x7F, 0xFE, 0x7F, 0xF8, 0x1F, 0xF8, 0x1F, 0xF0, 0x0F, 
  0xE8, 0x17, 0x84, 0x21, 0x80, 0x01, 0x00, 0x00, };
