#define not_mine_width 16
#define not_mine_height 16
static char not_mine_bits[] = {
  0x00, 0x00, 0x86, 0x61, 0x8E, 0x71, 0xFC, 0x3F, 0xF8, 0x1F, 0xF8, 0x1F, 
  0xF8, 0x1F, 0xFE, 0x7F, 0xFE, 0x7F, 0xF8, 0x1F, 0xF8, 0x17, 0xF8, 0x1F, 
  0xFC, 0x3F, 0x8E, 0x71, 0x86, 0x61, 0x80, 0x00, };
