#define 2_width 16
#define 2_height 16
static char 2_bits[] = {
  0x00, 0x00, 0x00, 0x00, 0xE0, 0x07, 0xF0, 0x0F, 0xF8, 0x1F, 0x38, 0x1C, 
  0x38, 0x1C, 0x00, 0x1E, 0x00, 0x0F, 0x80, 0x07, 0xC0, 0x03, 0xE0, 0x01, 
  0xF0, 0x1F, 0xF8, 0x1F, 0xF8, 0x1F, 0x00, 0x00, };
