#define 3_width 16
#define 3_height 16
static char 3_bits[] = {
  0x00, 0x00, 0x00, 0x00, 0xF8, 0x07, 0xF8, 0x0F, 0xF8, 0x1F, 0x00, 0x1E, 
  0x00, 0x1E, 0xC0, 0x0F, 0xC0, 0x07, 0xC0, 0x0F, 0x00, 0x1E, 0x00, 0x1E, 
  0xF8, 0x1F, 0xF8, 0x0F, 0xF8, 0x07, 0x00, 0x00, };
