#define 4_width 16
#define 4_height 16
static char 4_bits[] = {
  0x00, 0x00, 0x00, 0x00, 0x00, 0x07, 0x80, 0x07, 0xC0, 0x07, 0xE0, 0x07, 
  0x70, 0x07, 0x38, 0x07, 0x38, 0x07, 0xF8, 0x1F, 0xF8, 0x1F, 0xF8, 0x1F, 
  0x00, 0x07, 0x00, 0x07, 0x00, 0x07, 0x00, 0x00, };
