#define 5_width 16
#define 5_height 16
static char 5_bits[] = {
  0x00, 0x00, 0x00, 0x00, 0xF8, 0x1F, 0xF8, 0x1F, 0xF8, 0x1F, 0x38, 0x00, 
  0xF8, 0x07, 0xF8, 0x0F, 0xF8, 0x1F, 0x00, 0x1C, 0x00, 0x1C, 0xF8, 0x1F, 
  0xF8, 0x0F, 0xF8, 0x07, 0x00, 0x00, 0x00, 0x00, };
