#define 7_width 16
#define 7_height 16
static char 7_bits[] = {
  0x00, 0x00, 0x00, 0x00, 0xF8, 0x1F, 0xF8, 0x1F, 0xF8, 0x1F, 0x00, 0x1E, 
  0x00, 0x0F, 0x80, 0x07, 0xC0, 0x03, 0xC0, 0x01, 0xC0, 0x01, 0xC0, 0x01, 
  0xC0, 0x01, 0xC0, 0x01, 0x00, 0x00, 0x00, 0x00, };
