#define fail_mine_width 16
#define fail_mine_height 16
static char fail_mine_bits[] = {
  0x6B, 0x7A, 0xBD, 0xAF, 0xF7, 0xEF, 0xEA, 0x57, 0xF7, 0xEF, 0xBD, 0x7F, 
  0x9F, 0xFF, 0xBE, 0x7F, 0xFE, 0x7F, 0xFF, 0xFF, 0xFF, 0xDF, 0xF5, 0x6F, 
  0xEA, 0xD7, 0xF7, 0xE7, 0xDD, 0xBB, 0x6B, 0xCE, };
